<svg width="17" height="11" viewBox="0 0 17 11" fill="none" xmlns="http://www.w3.org/2000/svg">
<path fill-rule="evenodd" clip-rule="evenodd" d="M16.4455 5.14645C16.5393 5.24021 16.592 5.36739 16.592 5.5C16.592 5.63261 16.5393 5.75979 16.4455 5.85355L12.2029 10.0962C12.1091 10.19 11.982 10.2426 11.8493 10.2426C11.7167 10.2426 11.5896 10.19 11.4958 10.0962C11.402 10.0024 11.3493 9.87525 11.3493 9.74264C11.3493 9.61003 11.402 9.48286 11.4958 9.38909L14.885 5.99992L0.535637 6.00063C0.469893 6.00063 0.404793 5.98768 0.344053 5.96252C0.283314 5.93736 0.228125 5.90049 0.181637 5.854C0.135149 5.80751 0.0982725 5.75232 0.0731134 5.69158C0.0479544 5.63084 0.0350049 5.56574 0.0350049 5.5C0.0350049 5.43426 0.0479544 5.36916 0.0731134 5.30842C0.0982725 5.24768 0.135149 5.19249 0.181637 5.146C0.228125 5.09951 0.283314 5.06264 0.344053 5.03748C0.404793 5.01232 0.469893 4.99937 0.535637 4.99937L14.885 5.00008L11.4958 1.61091C11.402 1.51714 11.3493 1.38997 11.3493 1.25736C11.3493 1.12475 11.402 0.997574 11.4958 0.903806C11.5896 0.810038 11.7167 0.75736 11.8493 0.75736C11.982 0.75736 12.1091 0.810038 12.2029 0.903806L16.4455 5.14645Z" fill="#86F3DF"/>
</svg>
