<svg width="19" height="22" viewBox="0 0 19 22" fill="none" xmlns="http://www.w3.org/2000/svg">
<g clip-path="url(#clip0_18_125)">
<path d="M7.9933 12.5176C7.9933 13.3092 7.4308 13.5594 6.73973 13.5594H4.92768V11.3896H6.77589C7.52321 11.3938 7.9933 11.7096 7.9933 12.5176ZM7.68393 9.14199C7.68393 8.41602 7.13348 8.24375 6.52277 8.24375H4.9317V10.0813H6.64732C7.25402 10.0813 7.68393 9.81055 7.68393 9.14199ZM12.9996 10.0936C12.2643 10.0936 11.7741 10.5611 11.7259 11.3117H14.225C14.1567 10.5529 13.771 10.0936 12.9996 10.0936ZM18.5 3.78125V18.2188C18.5 19.3057 17.6362 20.1875 16.5714 20.1875H2.42857C1.36384 20.1875 0.5 19.3057 0.5 18.2188V3.78125C0.5 2.69434 1.36384 1.8125 2.42857 1.8125H16.5714C17.6362 1.8125 18.5 2.69434 18.5 3.78125ZM11.4165 8.08789H14.5424V7.3127H11.4165V8.08789ZM9.68884 12.6119C9.68884 11.6234 9.2308 10.7703 8.28259 10.4955C8.97366 10.1592 9.33527 9.76953 9.33527 8.97793C9.33527 7.41113 8.19018 7.02969 6.8683 7.02969H3.23214V14.9047H6.97277C8.375 14.8965 9.68884 14.2115 9.68884 12.6119ZM15.7679 12.0049C15.7679 10.3191 14.7996 8.9123 13.0518 8.9123C11.3482 8.9123 10.1951 10.2166 10.1951 11.9311C10.1951 13.707 11.292 14.9252 13.0518 14.9252C14.3857 14.9252 15.2496 14.3141 15.6674 13.0057H14.3134C14.1647 13.4937 13.5661 13.748 13.1 13.748C12.2 13.748 11.7299 13.2107 11.7299 12.3002H15.7558C15.7598 12.2059 15.7679 12.1033 15.7679 12.0049Z" fill="white"/>
</g>
<defs>
<clipPath id="clip0_18_125">
<rect width="18" height="21" fill="white" transform="translate(0.5 0.5)"/>
</clipPath>
</defs>
</svg>
