<svg width="17" height="12" viewBox="0 0 17 12" fill="none" xmlns="http://www.w3.org/2000/svg">
<path d="M16.8099 5.76501C15.1249 2.65001 12.1699 0.765015 8.89986 0.765015C5.62986 0.765015 2.66986 2.65001 0.999863 5.76501L0.859863 6.00001L0.989863 6.24001C2.67486 9.35501 5.62986 11.24 8.89986 11.24C12.1699 11.24 15.1299 9.38001 16.8099 6.24001L16.9399 6.00001L16.8099 5.76501ZM8.89986 10.215C6.08486 10.215 3.49986 8.64501 1.99986 6.00001C3.49986 3.35501 6.08486 1.78501 8.89986 1.78501C11.7149 1.78501 14.2699 3.36001 15.7949 6.00001C14.2699 8.64501 11.7099 10.215 8.89986 10.215Z" fill="white"/>
<path d="M9.04511 2.58505C8.36717 2.59 7.70589 2.79574 7.14482 3.17629C6.58374 3.55684 6.14802 4.09513 5.89269 4.72317C5.63736 5.35121 5.57387 6.04084 5.71025 6.70494C5.84663 7.36904 6.17675 7.97783 6.65892 8.45442C7.1411 8.93101 7.75369 9.25402 8.41933 9.38265C9.08498 9.51129 9.77381 9.43978 10.3988 9.17715C11.0239 8.91453 11.557 8.47257 11.931 7.9071C12.305 7.34163 12.5031 6.678 12.5001 6.00005C12.4981 5.54877 12.4071 5.10231 12.2323 4.68626C12.0575 4.27021 11.8023 3.89275 11.4814 3.5755C11.1604 3.25826 10.78 3.00747 10.3619 2.83751C9.94387 2.66755 9.49638 2.58176 9.04511 2.58505ZM9.04511 8.44505C8.56623 8.44012 8.0995 8.29379 7.70351 8.02446C7.30753 7.75513 6.99996 7.37479 6.81943 6.93122C6.6389 6.48766 6.59346 6.00063 6.68881 5.53133C6.78417 5.06202 7.01607 4.63135 7.35539 4.29341C7.69472 3.95547 8.12633 3.72533 8.59602 3.63189C9.06572 3.53844 9.55255 3.58587 9.99537 3.76821C10.4382 3.95055 10.8173 4.25967 11.085 4.65675C11.3527 5.05383 11.4971 5.52116 11.5001 6.00005C11.5014 6.32235 11.4388 6.64171 11.3157 6.93961C11.1927 7.2375 11.0118 7.50801 10.7834 7.73545C10.555 7.96289 10.2838 8.14272 9.9854 8.26453C9.68701 8.38634 9.3674 8.4477 9.04511 8.44505Z" fill="white"/>
</svg>
