<svg width="20" height="20" viewBox="0 0 20 20" fill="none" xmlns="http://www.w3.org/2000/svg">
<path d="M16.8104 8.76489C15.1254 5.64989 12.1704 3.76489 8.90035 3.76489C5.63035 3.76489 2.67035 5.64989 1.00035 8.76489L0.860352 8.99989L0.990352 9.23989C2.67535 12.3549 5.63035 14.2399 8.90035 14.2399C12.1704 14.2399 15.1304 12.3799 16.8104 9.23989L16.9404 8.99989L16.8104 8.76489ZM8.90035 13.2149C6.08535 13.2149 3.50035 11.6449 2.00035 8.99989C3.50035 6.35489 6.08535 4.78489 8.90035 4.78489C11.7154 4.78489 14.2704 6.35989 15.7954 8.99989C14.2704 11.6449 11.7104 13.2149 8.90035 13.2149V13.2149Z" fill="white"/>
<path d="M9.04462 5.58505C8.36668 5.59 7.70541 5.79574 7.14433 6.17629C6.58325 6.55684 6.14753 7.09513 5.8922 7.72317C5.63687 8.35121 5.57339 9.04084 5.70976 9.70494C5.84614 10.369 6.17626 10.9778 6.65844 11.4544C7.14061 11.931 7.7532 12.254 8.41885 12.3827C9.08449 12.5113 9.77332 12.4398 10.3983 12.1772C11.0234 11.9145 11.5566 11.4726 11.9305 10.9071C12.3045 10.3416 12.5026 9.678 12.4996 9.00005C12.4977 8.54877 12.4067 8.10231 12.2318 7.68626C12.057 7.27021 11.8018 6.89275 11.4809 6.5755C11.1599 6.25826 10.7795 6.00747 10.3614 5.83751C9.94338 5.66755 9.49589 5.58176 9.04462 5.58505V5.58505ZM9.04462 11.4451C8.56574 11.4401 8.09901 11.2938 7.70302 11.0245C7.30704 10.7551 6.99947 10.3748 6.81894 9.93122C6.63841 9.48766 6.59297 9.00063 6.68832 8.53133C6.78368 8.06202 7.01558 7.63135 7.35491 7.29341C7.69423 6.95547 8.12584 6.72533 8.59553 6.63189C9.06523 6.53844 9.55206 6.58587 9.99488 6.76821C10.4377 6.95055 10.8168 7.25967 11.0845 7.65675C11.3522 8.05383 11.4966 8.52116 11.4996 9.00005C11.501 9.32235 11.4383 9.64171 11.3153 9.93961C11.1922 10.2375 11.0113 10.508 10.7829 10.7354C10.5546 10.9629 10.2833 11.1427 9.98492 11.2645C9.68652 11.3863 9.36691 11.4477 9.04462 11.4451V11.4451Z" fill="white"/>
</svg>
