<svg width="32" height="32" viewBox="0 0 32 32" fill="none" xmlns="http://www.w3.org/2000/svg">
<path fill-rule="evenodd" clip-rule="evenodd" d="M16.0001 1.99984C12.6764 2.00029 9.46124 3.18322 6.9298 5.33703C4.39836 7.49085 2.71576 10.475 2.18301 13.7558C1.65025 17.0365 2.30207 20.3998 4.02189 23.244C5.74171 26.0881 8.41732 28.2277 11.5701 29.2798C12.2701 29.4098 12.5701 28.9798 12.5701 28.6098V26.2298C8.6801 27.0698 7.8601 24.3498 7.8601 24.3498C7.58655 23.4927 7.01082 22.7641 6.2401 22.2998C4.9701 21.4398 6.3401 21.4498 6.3401 21.4498C6.7837 21.5125 7.20712 21.6757 7.57801 21.927C7.9489 22.1783 8.25745 22.5111 8.4801 22.8998C8.86744 23.5946 9.51484 24.107 10.2799 24.3246C11.045 24.5421 11.8652 24.4469 12.5601 24.0598C12.6166 23.3503 12.9294 22.6856 13.4401 22.1898C10.3401 21.8298 7.0701 20.6298 7.0701 15.2698C7.04743 13.8777 7.56332 12.5307 8.5101 11.5098C8.08156 10.304 8.13167 8.97981 8.6501 7.80984C8.6501 7.80984 9.8201 7.42984 12.5001 9.23984C14.7916 8.61479 17.2086 8.61479 19.5001 9.23984C22.1701 7.42984 23.3401 7.80984 23.3401 7.80984C23.8585 8.97981 23.9086 10.304 23.4801 11.5098C24.4269 12.5307 24.9428 13.8777 24.9201 15.2698C24.9201 20.6498 21.6501 21.8298 18.5301 22.1798C18.8643 22.5186 19.122 22.9251 19.2859 23.3718C19.4498 23.8186 19.516 24.2953 19.4801 24.7698V28.6098C19.4801 29.0698 19.7301 29.4198 20.4801 29.2798C23.637 28.2264 26.3154 26.0827 28.035 23.2333C29.7545 20.3839 30.4027 17.0151 29.8634 13.731C29.3241 10.447 27.6325 7.46242 25.092 5.31261C22.5514 3.1628 19.3281 1.98834 16.0001 1.99984Z" fill="white"/>
</svg>
