<svg width="17" height="16" viewBox="0 0 17 16" fill="none" xmlns="http://www.w3.org/2000/svg">
<path fill-rule="evenodd" clip-rule="evenodd" d="M8.49993 0.125047C6.63034 0.125299 4.82182 0.790699 3.39789 2.00222C1.97395 3.21374 1.0275 4.89234 0.727818 6.73776C0.428141 8.58318 0.794795 10.475 1.76219 12.0749C2.72959 13.6747 4.23462 14.8782 6.00806 15.47C6.40181 15.5432 6.57056 15.3013 6.57056 15.0932V13.7544C4.38243 14.2269 3.92118 12.6969 3.92118 12.6969C3.76731 12.2148 3.44346 11.805 3.00993 11.5438C2.29556 11.06 3.06618 11.0657 3.06618 11.0657C3.31571 11.1009 3.55388 11.1927 3.76251 11.3341C3.97113 11.4754 4.14469 11.6626 4.26993 11.8813C4.48781 12.2721 4.85197 12.5603 5.28234 12.6827C5.71271 12.8051 6.17405 12.7515 6.56493 12.5338C6.59669 12.1347 6.77265 11.7608 7.05993 11.4819C5.31618 11.2794 3.47681 10.6044 3.47681 7.58942C3.46406 6.80636 3.75425 6.04864 4.28681 5.47442C4.04576 4.79616 4.07394 4.05128 4.36556 3.39317C4.36556 3.39317 5.02368 3.17942 6.53118 4.19755C7.82014 3.84596 9.17973 3.84596 10.4687 4.19755C11.9706 3.17942 12.6287 3.39317 12.6287 3.39317C12.9203 4.05128 12.9485 4.79616 12.7074 5.47442C13.24 6.04864 13.5302 6.80636 13.5174 7.58942C13.5174 10.6157 11.6781 11.2794 9.92306 11.4763C10.1111 11.6669 10.256 11.8955 10.3482 12.1468C10.4404 12.3981 10.4776 12.6663 10.4574 12.9332V15.0932C10.4574 15.3519 10.5981 15.5488 11.0199 15.47C12.7957 14.8775 14.3023 13.6717 15.2695 12.0689C16.2368 10.4661 16.6014 8.57113 16.298 6.72384C15.9947 4.87655 15.0432 3.19775 13.6141 1.98848C12.1851 0.779212 10.372 0.11858 8.49993 0.125047Z" fill="white"/>
</svg>
