<svg width="20" height="20" viewBox="0 0 20 20" fill="none" xmlns="http://www.w3.org/2000/svg">
<path fill-rule="evenodd" clip-rule="evenodd" d="M9.49993 1.12505C7.63034 1.1253 5.82182 1.7907 4.39789 3.00222C2.97395 4.21374 2.0275 5.89234 1.72782 7.73776C1.42814 9.58318 1.79479 11.475 2.76219 13.0749C3.72959 14.6747 5.23462 15.8782 7.00806 16.47C7.40181 16.5432 7.57056 16.3013 7.57056 16.0932V14.7544C5.38243 15.2269 4.92118 13.6969 4.92118 13.6969C4.76731 13.2148 4.44346 12.805 4.00993 12.5438C3.29556 12.06 4.06618 12.0657 4.06618 12.0657C4.31571 12.1009 4.55388 12.1927 4.76251 12.3341C4.97113 12.4754 5.14469 12.6626 5.26993 12.8813C5.48781 13.2721 5.85197 13.5603 6.28234 13.6827C6.71271 13.8051 7.17405 13.7515 7.56493 13.5338C7.59669 13.1347 7.77265 12.7608 8.05993 12.4819C6.31618 12.2794 4.47681 11.6044 4.47681 8.58942C4.46406 7.80636 4.75425 7.04864 5.28681 6.47442C5.04576 5.79616 5.07394 5.05128 5.36556 4.39317C5.36556 4.39317 6.02368 4.17942 7.53118 5.19755C8.82014 4.84596 10.1797 4.84596 11.4687 5.19755C12.9706 4.17942 13.6287 4.39317 13.6287 4.39317C13.9203 5.05128 13.9485 5.79616 13.7074 6.47442C14.24 7.04864 14.5302 7.80636 14.5174 8.58942C14.5174 11.6157 12.6781 12.2794 10.9231 12.4763C11.1111 12.6669 11.256 12.8955 11.3482 13.1468C11.4404 13.3981 11.4776 13.6663 11.4574 13.9332V16.0932C11.4574 16.3519 11.5981 16.5488 12.0199 16.47C13.7957 15.8775 15.3023 14.6717 16.2695 13.0689C17.2368 11.4661 17.6014 9.57113 17.298 7.72384C16.9947 5.87655 16.0432 4.19775 14.6141 2.98848C13.1851 1.77921 11.372 1.11858 9.49993 1.12505V1.12505Z" fill="white"/>
</svg>
