<svg width="61" height="61" viewBox="0 0 61 61" fill="none" xmlns="http://www.w3.org/2000/svg">
<path d="M54.5625 1.625H6.4375C3.77964 1.625 1.625 3.77964 1.625 6.4375V54.5625C1.625 57.2204 3.77964 59.375 6.4375 59.375H54.5625C57.2204 59.375 59.375 57.2204 59.375 54.5625V6.4375C59.375 3.77964 57.2204 1.625 54.5625 1.625Z" stroke="#86F3DF" stroke-width="3.20833" stroke-linecap="round" stroke-linejoin="round"/>
<path d="M20.875 28.8958C25.3047 28.8958 28.8958 25.3047 28.8958 20.875C28.8958 16.4452 25.3047 12.8542 20.875 12.8542C16.4453 12.8542 12.8542 16.4452 12.8542 20.875C12.8542 25.3047 16.4453 28.8958 20.875 28.8958Z" fill="#070B0D" stroke="#86F3DF" stroke-width="3.20833" stroke-linecap="round" stroke-linejoin="round"/>
<path d="M36.58 34.0603C37.8894 32.3077 40.5305 32.3509 41.7819 34.1455L55.8582 54.3317C57.3412 56.4586 55.8194 59.3752 53.2264 59.3752H17.6667L36.58 34.0603Z" stroke="#86F3DF" stroke-width="3.20833" stroke-linecap="round" stroke-linejoin="round"/>
</svg>
