<svg width="32" height="32" viewBox="0 0 32 32" fill="none" xmlns="http://www.w3.org/2000/svg">
<path d="M16.0001 0.639893C7.51694 0.639893 0.640137 7.51669 0.640137 15.9999C0.640137 24.4831 7.51694 31.3599 16.0001 31.3599C24.4833 31.3599 31.3601 24.4831 31.3601 15.9999C31.3601 7.51669 24.4833 0.639893 16.0001 0.639893ZM12.2401 22.3663H9.12974V12.3567H12.2401V22.3663ZM10.6657 11.1279C9.68334 11.1279 9.04814 10.4319 9.04814 9.57109C9.04814 8.69269 9.70254 8.01749 10.7057 8.01749C11.7089 8.01749 12.3233 8.69269 12.3425 9.57109C12.3425 10.4319 11.7089 11.1279 10.6657 11.1279ZM23.6001 22.3663H20.4897V16.8191C20.4897 15.5279 20.0385 14.6511 18.9137 14.6511C18.0545 14.6511 17.5441 15.2447 17.3185 15.8159C17.2353 16.0191 17.2145 16.3071 17.2145 16.5935V22.3647H14.1025V15.5487C14.1025 14.2991 14.0625 13.2543 14.0209 12.3551H16.7233L16.8657 13.7455H16.9281C17.3377 13.0927 18.3409 12.1295 20.0193 12.1295C22.0657 12.1295 23.6001 13.5007 23.6001 16.4479V22.3663Z" fill="white"/>
</svg>
